<svg width="512" height="512" viewBox="0 0 512 512" fill="none" xmlns="http://www.w3.org/2000/svg">
<path d="M256 500C388.548 500 496 394.339 496 264C496 133.661 388.548 28 256 28C123.452 28 16 133.661 16 264C16 394.339 123.452 500 256 500Z" fill="url(#paint0_linear_157_210)"/>
<path d="M256 484C388.548 484 496 378.339 496 248C496 117.661 388.548 12 256 12C123.452 12 16 117.661 16 248C16 378.339 123.452 484 256 484Z" fill="url(#paint1_linear_157_210)"/>
<path d="M384.518 253.041C375.665 237.706 362.782 226.147 347.977 218.931C346.082 229.045 342.498 239.014 337.068 248.421L328.5 263.291C334.207 266.462 339.175 271.129 342.679 277.197C352.973 295.025 346.861 317.829 329.03 328.123C311.202 338.417 288.398 332.309 278.104 314.477L260.814 284.578H232.913L218.963 308.738L236.265 338.634C259.903 379.574 312.25 393.601 353.19 369.962C394.126 346.328 408.153 293.981 384.518 253.041Z" fill="#70CAF2"/>
<path d="M298.795 127.481C257.854 103.846 205.508 117.873 181.873 158.809C173.016 174.144 169.452 191.081 170.604 207.511C180.308 204.096 190.735 202.214 201.599 202.214L218.756 202.198C218.648 195.672 220.209 189.034 223.708 182.97C234.007 165.138 256.807 159.026 274.638 169.324C292.47 179.619 298.578 202.418 288.284 220.25L271.038 250.174L284.985 274.338L312.886 274.334L330.123 244.402C353.762 203.466 339.735 151.116 298.795 127.481Z" fill="#B4E3F9"/>
<path d="M229.322 342.641L220.725 327.787C215.126 331.146 208.601 333.113 201.597 333.113C181.005 333.113 164.313 316.421 164.313 295.829C164.313 275.24 181.005 258.549 201.597 258.549L236.132 258.524L250.087 234.364L236.132 210.203L201.593 210.236C154.32 210.236 116 248.559 116 295.829C116 343.102 154.32 381.426 201.593 381.426C219.296 381.426 235.739 376.048 249.388 366.845C241.578 360.147 234.752 352.044 229.322 342.641Z" fill="#3F79AD"/>
<defs>
<linearGradient id="paint0_linear_157_210" x1="16" y1="264" x2="496" y2="264" gradientUnits="userSpaceOnUse">
<stop stop-color="#3F79AD"/>
<stop offset="0.413097" stop-color="#EBF5FF"/>
<stop offset="0.808247" stop-color="#70CAF2"/>
<stop offset="1" stop-color="#E4EFF8"/>
</linearGradient>
<linearGradient id="paint1_linear_157_210" x1="255.759" y1="11.9993" x2="255.759" y2="480.226" gradientUnits="userSpaceOnUse">
<stop stop-color="white"/>
<stop offset="1" stop-color="#DBDBDB"/>
</linearGradient>
</defs>
</svg>
